<?xml version="1.0" encoding="UTF-8" standalone="no"?>
<!-- Uploaded to: SVG Repo, www.svgrepo.com, Generator: SVG Repo Mixer Tools -->

<svg
   height="800"
   width="2000"
   version="1.1"
   id="Layer_1"
   viewBox="0 0 1280.0073 512.003"
   xml:space="preserve"
   sodipodi:docname="logo.svg"
   inkscape:version="1.2.2 (b0a8486541, 2022-12-01)"
   xmlns:inkscape="http://www.inkscape.org/namespaces/inkscape"
   xmlns:sodipodi="http://sodipodi.sourceforge.net/DTD/sodipodi-0.dtd"
   xmlns="http://www.w3.org/2000/svg"
   xmlns:svg="http://www.w3.org/2000/svg"><defs
   id="defs346"><rect
     x="708.24542"
     y="52.599395"
     width="1233.7876"
     height="450.32894"
     id="rect402" /></defs><sodipodi:namedview
   id="namedview344"
   pagecolor="#ffffff"
   bordercolor="#000000"
   borderopacity="0.25"
   inkscape:showpageshadow="2"
   inkscape:pageopacity="0.0"
   inkscape:pagecheckerboard="0"
   inkscape:deskcolor="#d1d1d1"
   showgrid="false"
   inkscape:zoom="1.45625"
   inkscape:cx="1166.6953"
   inkscape:cy="383.51931"
   inkscape:window-width="3440"
   inkscape:window-height="1371"
   inkscape:window-x="0"
   inkscape:window-y="32"
   inkscape:window-maximized="1"
   inkscape:current-layer="text400" />
<path
   style="fill:#ffb95c"
   d="m 442.985,346.293 -8.159,10.709 5.246,18.501 c 0,0 -103.14,59.243 -222.487,-82.423 0,0 -91.722,-125.633 -7.763,-243.969 10.002,-14.098 23.455,-25.659 39.598,-31.841 9.202,-3.525 20.082,-5.813 31.789,-4.517 l 14.062,22.798 -6.367,33.603 c -1.419,7.494 -3.499,14.82 -6.198,21.955 -8.142,21.534 -24.842,77.63 -1.098,127.438 32.572,68.328 113.802,110.855 161.377,127.746 z"
   id="path321" />
<path
   style="fill:#fcad2d"
   d="m 249.42,17.273 c 9.202,-3.525 20.082,-5.813 31.789,-4.517 l 14.062,22.798 c -12.588,33.189 -68.652,123.942 -41.202,187.406 43.035,99.498 136.066,124.813 181.969,132.45 l -1.212,1.591 5.246,18.501 c 0,0 -103.14,59.243 -222.487,-82.423 0,0 -91.722,-125.633 -7.763,-243.969 10.002,-14.094 23.455,-25.658 39.598,-31.837 z"
   id="path323" />
<polygon
   style="fill:#965b2f"
   points="440.072,375.503 434.827,357.002 442.985,346.293 449.871,351.539 447.904,369.985 "
   id="polygon325" />
<path
   style="fill:#ffb95c"
   d="m 403.482,441.015 -12.005,10.624 1.85,22.827 c 0,0 -134.177,45.352 -240.836,-147.728 0,0 -78.094,-167.962 47.338,-286.781 14.94,-14.156 33.335,-24.551 53.618,-28.04 11.561,-1.989 24.803,-2.148 38.172,2.077 l 11.156,29.884 -15.206,37.78 c -3.392,8.428 -7.514,16.502 -12.316,24.214 -14.493,23.274 -46.969,84.94 -30.749,148.609 22.257,87.344 107.314,155.801 158.978,186.534 z"
   id="path327" />
<path
   style="fill:#fcad2d"
   d="m 253.45,11.92 c 11.561,-1.989 24.803,-2.148 38.172,2.077 l 11.156,29.884 c -22.373,35.855 -108.846,128.906 -91.453,209.387 27.266,126.174 130.082,177.258 181.937,196.79 l -1.785,1.581 1.85,22.827 c 0,0 -134.177,45.352 -240.836,-147.728 0,0 -78.094,-167.962 47.338,-286.781 C 214.773,25.804 233.167,15.41 253.45,11.92 Z"
   id="path329" />
<polygon
   style="fill:#965b2f"
   points="393.33,474.466 391.477,451.639 403.482,441.015 410.312,448.733 403.75,469.826 "
   id="polygon331" />
<path
   style="fill:#ffb95c"
   d="m 283.065,481.39 -15.041,7.216 -4.646,23.371 c 0,0 -147.186,7.18 -198.941,-216.402 0,0 -30.321,-190.316 129.029,-273.503 18.981,-9.908 40.346,-15.076 61.637,-12.792 12.138,1.299 25.432,4.915 37.608,12.948 l 2.654,33.079 -25.964,33.473 c -5.797,7.469 -12.219,14.373 -19.224,20.724 -21.129,19.162 -71.189,71.626 -73.085,139.958 -2.597,93.737 63.022,186.466 105.973,231.928 z"
   id="path333" />
<path
   style="fill:#fcad2d"
   d="m 255.106,9.28 c 12.138,1.299 25.432,4.915 37.608,12.948 l 1.74,21.667 c -67.505,29.518 -147.971,87.169 -150.223,194.904 -2.806,134.275 79.707,214.426 126.032,248.736 l -2.236,1.072 -4.646,23.371 c 0,0 -147.186,7.18 -198.941,-216.402 0,0 -30.321,-190.316 129.029,-273.503 C 212.45,12.16 233.815,6.995 255.106,9.28 Z"
   id="path335" />
<polygon
   style="fill:#965b2f"
   points="263.381,511.974 268.028,488.603 283.065,481.39 287.705,491.056 275.133,510.302 "
   id="polygon337" />
<polygon
   style="fill:#a9b135"
   points="295.371,55.306 294.457,43.891 291.467,13.155 334.917,0 356.088,36.306 301.903,63.124 "
   id="polygon339" />
<polygon
   style="fill:#bec142"
   points="301.903,63.124 295.371,55.306 294.457,43.891 348.318,22.976 356.088,36.306 "
   id="polygon341" />
<g
   aria-label="Ook!"
   transform="matrix(1.8350619,0,0,1.8350619,-853.04937,-114.91637)"
   id="text400"
   style="font-size:192px;white-space:pre;shape-inside:url(#rect402);display:inline"><path
     d="m 777.55809,97.503645 c -36.672,0 -62.784,27.455995 -62.784,66.239995 0,18.048 6.144,35.712 16.512,46.656 11.136,12.096 28.224,19.584 45.12,19.584 37.824,0 63.936,-26.688 63.936,-65.472 0,-19.008 -5.568,-35.52 -16.128,-46.848 -12.096,-13.248 -28.224,-20.159995 -46.656,-20.159995 z m 0,6.911995 c 8.832,0 17.664,3.456 24.576,9.6 10.368,9.408 16.32,27.456 16.32,50.304 0,11.328 -2.304,24.576 -6.336,34.56 -1.728,4.8 -4.992,9.6 -9.408,14.016 -6.72,6.72 -15.36,10.176 -25.536,10.176 -8.832,0 -17.472,-3.456 -24.384,-9.408 -9.792,-8.832 -16.128,-28.224 -16.128,-49.536 0,-19.584 5.376,-38.208 13.44,-47.232 7.488,-8.256 16.896,-12.48 27.456,-12.48 z"
     style="font-family:'Nimbus Roman';-inkscape-font-specification:'Nimbus Roman, '"
     id="path481" /><path
     d="m 894.87012,138.97564 c -25.152,0 -42.432,18.432 -42.432,44.928 0,26.112 17.856,45.312 42.048,45.312 24.192,0 42.624,-20.16 42.624,-46.848 0,-25.344 -17.664,-43.392 -42.24,-43.392 z m -2.496,5.376 c 16.128,0 27.456,18.432 27.456,44.736 0,21.888 -8.64,34.752 -23.04,34.752 -7.488,0 -14.592,-4.608 -18.624,-12.288 -5.376,-9.984 -8.448,-23.424 -8.448,-37.056 0,-18.24 8.832,-30.144 22.656,-30.144 z"
     style="font-family:'Nimbus Roman';-inkscape-font-specification:'Nimbus Roman, '"
     id="path483" /><path
     d="m 944.21412,227.29564 h 44.928 v -2.88 l -3.84,-0.192 c -8.064,-0.576 -10.368,-2.688 -10.56,-9.792 v -35.328 l 26.87998,35.904 c 0.768,0.96 1.344,1.92 1.92,2.496 1.536,1.92 2.112,3.072 2.112,4.032 0,1.728 -1.728,2.88 -4.032,2.88 h -3.64798 v 2.88 h 41.85598 v -2.88 c -8.448,-0.576 -14.4,-4.224 -22.464,-14.016 l -29.37598,-37.248 5.568,-5.184 c 23.99998,-21.504 29.18398,-24.576 41.47198,-24.192 v -2.88 h -39.16798 v 2.688 c 7.48798,0.192 9.59998,0.96 9.59998,3.456 0,1.728 -1.728,4.224 -4.416,6.72 l -26.30398,23.424 V 96.543645 l -0.768,-0.384 c -7.488,2.304 -13.056,4.031995 -24,6.911995 l -5.76,1.536 v 3.072 c 2.496,-0.192 4.224,-0.384 6.144,-0.384 6.528,0 8.256,2.496 8.256,11.712 v 92.544 c -0.192,10.176 -0.768,10.752 -14.4,12.864 z"
     style="font-family:'Nimbus Roman';-inkscape-font-specification:'Nimbus Roman, '"
     id="path485" /><path
     d="m 1069.0142,193.50364 8.64,-73.536 c 0.192,-2.304 0.384,-4.416 0.384,-7.104 0,-9.984 -3.648,-15.359995 -10.176,-15.359995 -6.336,0 -10.176,5.759995 -10.176,14.783995 0,4.992 1.536,19.584 3.84,33.984 1.728,11.328 2.88,20.736 3.264,26.496 l 1.728,20.736 z m -1.152,15.36 c -5.76,0 -10.176,4.608 -10.176,10.368 0,5.568 4.224,9.792 9.984,9.792 6.336,0 10.752,-4.032 10.752,-9.792 0,-5.76 -4.8,-10.368 -10.56,-10.368 z"
     style="font-family:'Nimbus Roman';-inkscape-font-specification:'Nimbus Roman, '"
     id="path487" /></g></svg>
